<?xml version="1.0" encoding="UTF-8" standalone="no"?>
<!DOCTYPE svg PUBLIC "-//W3C//DTD SVG 1.1//EN" "http://www.w3.org/Graphics/SVG/1.1/DTD/svg11.dtd">
<svg height="100%" stroke-miterlimit="10" style="fill-rule:nonzero;clip-rule:evenodd;stroke-linecap:round;stroke-linejoin:round;" version="1.1" viewBox="0 0 66 66" width="100%" xml:space="preserve" xmlns="http://www.w3.org/2000/svg" xmlns:xlink="http://www.w3.org/1999/xlink">
<defs/>
<g id="Untitled">
<g opacity="1">
<path d="M10 10L55.7763 10L55.7763 10L55.7763 55.7763L55.7763 55.7763L10 55.7763L10 55.7763L10 10L10 10Z" fill="none" opacity="1" stroke="#02000b" stroke-linecap="butt" stroke-linejoin="round" stroke-width="3.51416" />
<path d="M32.8969 40.7793C39.5211 40.7793 44.9505 35.3499 44.9505 28.7082C44.9505 22.0664 39.5211 16.637 32.8969 16.637C26.2551 16.637 20.8258 22.0664 20.8258 28.7082C20.8258 35.3499 26.2551 40.7793 32.8969 40.7793ZM32.8969 22.0312C36.6044 22.0312 39.5738 25.0007 39.5738 28.7082C39.5738 32.4156 36.6044 35.4026 32.8969 35.4026C29.1719 35.4026 26.2024 32.4156 26.2024 28.7082C26.2024 25.0007 29.1719 22.0312 32.8969 22.0312ZM43.4745 44.2232L22.0206 44.2232L22.0206 49.5998L43.4745 49.5998L43.4745 44.2232Z" fill="#02000b" fill-rule="nonzero" opacity="1" stroke="none" />
</g>
</g>
</svg>
