<?xml version="1.0" encoding="UTF-8" standalone="no"?>
<!DOCTYPE svg PUBLIC "-//W3C//DTD SVG 1.1//EN" "http://www.w3.org/Graphics/SVG/1.1/DTD/svg11.dtd">
<svg height="100%" stroke-miterlimit="10" style="fill-rule:nonzero;clip-rule:evenodd;stroke-linecap:round;stroke-linejoin:round;" version="1.1" viewBox="0 0 256.241 45.9435" width="100%" xml:space="preserve" xmlns="http://www.w3.org/2000/svg" xmlns:xlink="http://www.w3.org/1999/xlink">
<defs/>
<g id="Untitled">
<g opacity="1">
<g opacity="1">
<path d="M10 10L36.0525 10L36.0525 10L36.0525 36.0525L36.0525 36.0525L10 36.0525L10 36.0525L10 10L10 10Z" fill="none" opacity="1" stroke="#02000b" stroke-linecap="butt" stroke-linejoin="round" stroke-width="2"/>
<path d="M33.0493 14.0173L29.9093 14.0173L23.1693 28.4173L16.1393 14.0173L12.9993 14.0173L12.9993 32.5373L16.0893 32.5373L16.0893 20.9373L21.7493 32.5373L24.6493 32.5373L29.9593 21.1773L29.9593 32.5373L33.0493 32.5373L33.0493 14.0173Z" fill="#02000b" fill-rule="nonzero" opacity="1" stroke="none"/>
</g>
<g opacity="1">
<path d="M40.0525 10L66.1049 10L66.1049 10L66.1049 36.0525L66.1049 36.0525L40.0525 36.0525L40.0525 36.0525L40.0525 10L40.0525 10Z" fill="none" opacity="1" stroke="#02000b" stroke-linecap="butt" stroke-linejoin="round" stroke-width="2"/>
<path d="M57.1344 32.5373L60.4644 32.5373L53.0644 13.5173L45.6944 32.5373L49.0244 32.5373L49.8144 30.3973L56.3144 30.3973L57.1344 32.5373ZM53.0644 21.3073L55.3144 27.7273L50.8244 27.7273L53.0644 21.3073Z" fill="#02000b" fill-rule="nonzero" opacity="1" stroke="none"/>
</g>
<g opacity="1">
<path d="M70.1049 10L96.1574 10L96.1574 10L96.1574 36.0525L96.1574 36.0525L70.1049 36.0525L70.1049 36.0525L70.1049 10L70.1049 10Z" fill="none" opacity="1" stroke="#02000b" stroke-linecap="butt" stroke-linejoin="round" stroke-width="2"/>
<path d="M81.2572 29.4473L81.2572 14.0473L78.1672 14.0473L78.1672 32.5373L88.0972 32.5373L88.0972 29.4473L81.2572 29.4473Z" fill="#02000b" fill-rule="nonzero" opacity="1" stroke="none"/>
</g>
<g opacity="1">
<path d="M100.157 10L126.21 10L126.21 10L126.21 36.0525L126.21 36.0525L100.157 36.0525L100.157 36.0525L100.157 10L100.157 10Z" fill="none" opacity="1" stroke="#02000b" stroke-linecap="butt" stroke-linejoin="round" stroke-width="2"/>
<path d="M106.238 14.0473L106.238 32.5373L109.328 32.5373C113.928 32.5373 120.128 31.1873 120.128 23.2873C120.128 15.0773 113.818 14.0473 109.328 14.0473L106.238 14.0473ZM109.328 29.5273L109.328 17.0573C109.328 17.0573 117.018 15.8973 117.018 23.2873C117.018 30.5773 109.328 29.5273 109.328 29.5273Z" fill="#02000b" fill-rule="nonzero" opacity="1" stroke="none"/>
</g>
<g opacity="1">
<path d="M130.21 10L156.262 10L156.262 10L156.262 36.0525L156.262 36.0525L130.21 36.0525L130.21 36.0525L130.21 10L130.21 10Z" fill="none" opacity="1" stroke="#02000b" stroke-linecap="butt" stroke-linejoin="round" stroke-width="2"/>
<path d="M143.241 27.5173C147.011 27.5173 150.101 24.4273 150.101 20.6473C150.101 16.8673 147.011 13.7773 143.241 13.7773C139.461 13.7773 136.371 16.8673 136.371 20.6473C136.371 24.4273 139.461 27.5173 143.241 27.5173ZM143.241 16.8473C145.351 16.8473 147.041 18.5373 147.041 20.6473C147.041 22.7573 145.351 24.4573 143.241 24.4573C141.121 24.4573 139.431 22.7573 139.431 20.6473C139.431 18.5373 141.121 16.8473 143.241 16.8473ZM149.261 29.4773L137.051 29.4773L137.051 32.5373L149.261 32.5373L149.261 29.4773Z" fill="#02000b" fill-rule="nonzero" opacity="1" stroke="none"/>
</g>
<g opacity="1">
<path d="M160.262 10L186.315 10L186.315 10L186.315 36.0525L186.315 36.0525L160.262 36.0525L160.262 36.0525L160.262 10L160.262 10Z" fill="none" opacity="1" stroke="#02000b" stroke-linecap="butt" stroke-linejoin="round" stroke-width="2"/>
<path d="M179.931 32.5373L174.911 24.5073C176.711 24.0073 178.981 22.7073 178.981 19.4373C178.981 14.0473 172.801 14.0473 172.801 14.0473L166.641 14.0473L166.641 17.1373L169.581 21.7573L166.641 21.7573L166.641 32.5373L169.731 32.5373L169.731 24.8273L171.501 24.8273L176.311 32.5373L179.931 32.5373ZM170.321 17.1373L172.801 17.1373C172.801 17.1373 175.891 17.1373 175.891 19.4373C175.891 21.2573 174.011 21.6573 173.201 21.7273L170.321 17.1373Z" fill="#02000b" fill-rule="nonzero" opacity="1" stroke="none"/>
</g>
<g opacity="1">
<path d="M190.315 10L216.367 10L216.367 10L216.367 36.0525L216.367 36.0525L190.315 36.0525L190.315 36.0525L190.315 10L190.315 10Z" fill="none" opacity="1" stroke="#02000b" stroke-linecap="butt" stroke-linejoin="round" stroke-width="2"/>
<path d="M211.043 14.0473L207.983 14.0473L207.983 27.1973L198.753 14.0473L195.643 14.0473L195.643 32.5373L198.733 32.5373L198.733 19.3773L207.923 32.5373L211.043 32.5373L211.043 14.0473Z" fill="#02000b" fill-rule="nonzero" opacity="1" stroke="none"/>
</g>
<g opacity="1">
<path d="M220.367 10L246.42 10L246.42 10L246.42 36.0525L246.42 36.0525L220.367 36.0525L220.367 36.0525L220.367 10L220.367 10Z" fill="none" opacity="1" stroke="#02000b" stroke-linecap="butt" stroke-linejoin="round" stroke-width="2"/>
<path d="M239.567 17.1373L239.567 14.0473L227.227 14.0473L227.227 32.5373L239.567 32.5373L239.567 29.4473L230.317 29.4473L230.317 24.8273L238.007 24.8273L238.007 21.7573L230.317 21.7573L230.317 17.1373L239.567 17.1373Z" fill="#02000b" fill-rule="nonzero" opacity="1" stroke="none"/>
</g>
</g>
</g>
</svg>
